<svg width="68" height="58" viewBox="0 0 68 58" fill="none" xmlns="http://www.w3.org/2000/svg">
<path d="M44.9226 24.6355L8.50909 42.5529C7.99112 42.829 7.21947 42.5892 7.01958 41.9872C6.7659 41.4713 7.0302 40.6793 7.63118 40.4547L44.1276 22.5889C44.6456 22.3127 45.4173 22.5525 45.6172 23.1545C45.734 23.705 45.5235 24.4109 44.9226 24.6355Z" fill="#9DBBCE"/>
<path d="M58.8095 24.2383L49.3176 28.8945C46.1176 30.5042 42.2191 29.1641 40.8007 25.8876C39.3283 22.6975 40.7908 18.6919 44.074 17.1339L53.5659 12.4778C55.2075 11.6988 57.0882 12.3862 57.8513 13.938L60.4878 19.8873C61.197 21.5256 60.3972 23.5457 58.8095 24.2383Z" fill="#9DBBCE"/>
<path d="M9.25638 41.8604L8.46261 42.2067C7.94319 42.4835 7.16939 42.2431 6.96896 41.6395C6.71458 41.1223 6.97963 40.3281 7.58228 40.1029L8.43 39.6703C8.94942 39.3934 9.72321 39.6338 9.92365 40.2374C10.1241 40.841 9.82974 41.4972 9.25638 41.8604Z" fill="#B5C6D2"/>
<path d="M39.3332 25.237L37.4023 26.168L38.3406 28.2224L40.2715 27.2914L39.3332 25.237Z" fill="#B5C6D2"/>
</svg>
