<svg width="80" height="64" viewBox="0 0 80 64" fill="none" xmlns="http://www.w3.org/2000/svg">
<path d="M47.1046 43.7453C66.9038 27.4699 78.5476 8.96487 73.1118 2.41307C67.6761 -4.13872 47.2191 3.74378 27.4199 20.0191C7.62072 36.2945 -4.02312 54.7996 1.41266 61.3514C6.84844 67.9032 27.3054 60.0207 47.1046 43.7453Z" fill="#D3A674"/>
<path d="M49.0875 37.7844C35.3626 48.9844 29.5512 50.3383 24.2343 43.9383C17.1864 35.446 19.9066 30.5229 33.6315 19.1998C47.3564 7.87673 61.8232 2.95366 66.1508 8.12289C70.4785 13.2921 62.6887 26.4614 49.0875 37.7844Z" fill="#5186BC"/>
<path d="M57.7399 5.04727L67.7553 17.1088C68.0026 17.355 67.6317 17.7242 67.3844 17.6011L50.4447 8.37035C50.1974 8.24727 49.8264 8.6165 50.0737 8.86266L62.5621 24.0011C62.8094 24.2473 63.1804 24.0011 63.0567 23.755L57.2453 5.29343C57.1217 5.04727 57.4926 4.80112 57.7399 5.04727Z" stroke="#002A50" stroke-width="0.2006" stroke-miterlimit="10"/>
<path d="M67.2685 17.7254C67.1449 17.6023 67.1449 17.3561 67.2685 17.2331L67.8868 16.7407C68.0104 16.6177 68.2577 16.6177 68.3813 16.7407C68.505 16.8638 68.505 17.11 68.3813 17.2331L67.7631 17.7254C67.6395 17.8484 67.3922 17.8484 67.2685 17.7254Z" fill="#002A50"/>
<path d="M57.124 5.53786C57.0003 5.41478 57.0003 5.16863 57.124 5.04555L57.7422 4.55325C57.8659 4.43017 58.1132 4.43017 58.2368 4.55325C58.3605 4.67632 58.3605 4.92248 58.2368 5.04555L57.6186 5.53786C57.4949 5.66094 57.2476 5.66094 57.124 5.53786Z" fill="#002A50"/>
<path d="M49.831 8.49489C49.7074 8.37182 49.7074 8.12566 49.831 8.00258L50.4493 7.51028C50.5729 7.3872 50.8202 7.3872 50.9438 7.51028C51.0675 7.63335 51.0675 7.87951 50.9438 8.00258L50.3256 8.61797C50.202 8.74105 49.9547 8.74105 49.831 8.49489Z" fill="#002A50"/>
<path d="M62.8154 24.2449C62.6917 24.1218 62.6917 23.8757 62.8154 23.7526L63.4336 23.2603C63.5573 23.1372 63.8046 23.1372 63.9282 23.2603C64.0519 23.3834 64.0519 23.6295 63.9282 23.7526L63.31 24.2449C63.1863 24.368 62.939 24.368 62.8154 24.2449Z" fill="#002A50"/>
<path d="M17.4321 38.1534C17.5558 38.2764 17.5558 38.5226 17.4321 38.6457L16.8139 39.138C16.6902 39.2611 16.4429 39.2611 16.3193 39.138C16.1957 39.0149 16.1957 38.7687 16.3193 38.6457L16.9375 38.1534C17.0612 37.9072 17.3085 37.9072 17.4321 38.1534Z" fill="#002A50"/>
<path d="M27.5767 50.337C27.7003 50.46 27.7003 50.7062 27.5767 50.8293L26.9584 51.3216C26.8348 51.4447 26.5875 51.4447 26.4638 51.3216C26.3402 51.1985 26.3402 50.9523 26.4638 50.8293L27.0821 50.337C27.2057 50.0908 27.453 50.0908 27.5767 50.337Z" fill="#002A50"/>
<path d="M34.8696 47.2593C34.9933 47.3824 34.9933 47.6285 34.8696 47.7516L34.2514 48.2439C34.1277 48.367 33.8804 48.367 33.7568 48.2439C33.6332 48.1208 33.6332 47.8747 33.7568 47.7516L34.375 47.2593C34.4987 47.0132 34.746 47.1362 34.8696 47.2593Z" fill="#002A50"/>
<path d="M21.7603 31.5103C21.8839 31.6334 21.8839 31.8795 21.7603 32.0026L21.142 32.4949C21.0184 32.618 20.7711 32.618 20.6474 32.4949C20.5238 32.3718 20.5238 32.1257 20.6474 32.0026L21.2657 31.5103C21.3893 31.3872 21.6366 31.3872 21.7603 31.5103Z" fill="#002A50"/>
<path d="M1.36108 61.2935C4.20498 64.7397 11.1292 64.2474 20.0319 60.6782C25.1014 54.8935 24.8541 50.7089 20.0319 44.6782C16.3224 40.2474 12.3657 39.5089 5.5651 43.3243C0.248254 51.2012 -1.48281 57.8474 1.36108 61.2935Z" fill="#D6A85C"/>
</svg>
